<svg width="32" height="32" viewBox="0 0 32 32" fill="none" xmlns="http://www.w3.org/2000/svg">
<g clip-path="url(#clip0_2065_543)">
<rect x="1" y="1" width="30" height="30" rx="15" fill="#C2433D"/>
<rect x="1" y="1" width="30" height="30" rx="15" stroke="black" stroke-width="2"/>
<path d="M12 18V8H19.5L18 15H21L15 23.5V18H12Z" fill="#FFD45E"/>
<path d="M16 20.6L19.2 16H16.35L18.35 9H13V17H16V20.6ZM21.375 16.35L15.375 25.025C15.275 25.175 15.1458 25.275 14.9875 25.325C14.8292 25.375 14.675 25.375 14.525 25.325C14.375 25.275 14.25 25.1875 14.15 25.0625C14.05 24.9375 14 24.7833 14 24.6V19H13C12.45 19 11.9792 18.8042 11.5875 18.4125C11.1958 18.0208 11 17.55 11 17V9C11 8.45 11.1958 7.97917 11.5875 7.5875C11.9792 7.19583 12.45 7 13 7H18.85C19.3833 7 19.8125 7.20833 20.1375 7.625C20.4625 8.04167 20.5583 8.5 20.425 9L19 14H20.125C20.725 14 21.1708 14.2667 21.4625 14.8C21.7542 15.3333 21.725 15.85 21.375 16.35Z" fill="black"/>
</g>
<defs>
<clipPath id="clip0_2065_543">
<rect width="32" height="32" fill="white"/>
</clipPath>
</defs>
</svg>
